<svg width="24" height="24" viewBox="0 0 24 24" fill="none" xmlns="http://www.w3.org/2000/svg">
<path d="M12.5334 9.33336V15.5667C12.5334 15.7011 12.4283 15.8111 12.2998 15.8111C12.1713 15.8111 12.0662 15.7011 12.0662 15.5667V9.33336C12.0662 9.19891 12.1713 9.08891 12.2998 9.08891C12.4283 9.08891 12.5334 9.19891 12.5334 9.33336ZM16.7962 7.78114C16.7729 7.91558 16.6561 8.00114 16.5276 7.97669C16.5276 7.97669 16.4575 7.96447 16.3407 7.95225C16.4108 9.3578 16.3524 10.8122 16.2006 12.2911C16.0604 13.6111 15.8385 14.8945 15.5582 16.1167C15.4298 16.6789 14.9977 17.1067 14.4487 17.2045C13.8064 17.3267 13.094 17.4 12.3582 17.4C11.6575 17.4 10.91 17.3267 10.1626 17.1922C9.61364 17.0945 9.18152 16.6545 9.05305 16.0922C8.73771 14.7356 8.52749 13.4889 8.39902 12.2789C8.2472 10.8367 8.20048 9.38225 8.25888 7.95225C8.14209 7.96447 8.07201 7.97669 8.07201 7.97669C7.94354 8.00114 7.82675 7.90336 7.80339 7.76891C7.78004 7.63447 7.87347 7.51225 8.00194 7.4878C8.01362 7.4878 9.19319 7.29225 10.6531 7.18225C10.945 6.86447 11.5056 6.40002 12.3465 6.40002C13.1407 6.40002 13.7013 6.81558 14.04 7.19447C15.4765 7.30447 16.586 7.50002 16.5977 7.50002C16.7261 7.52447 16.8196 7.64669 16.7962 7.78114ZM11.4356 7.1578C12.0429 7.13336 12.6619 7.13336 13.2575 7.1578C13.0122 6.99891 12.7086 6.88891 12.3465 6.88891C11.9728 6.88891 11.6691 7.01114 11.4356 7.1578ZM15.8736 7.89114C15.4064 7.83002 14.729 7.74447 13.9582 7.68336H13.8881C12.9188 7.62225 11.7976 7.62225 10.8049 7.68336H10.7465C9.94065 7.74447 9.22823 7.83002 8.73771 7.89114C8.67932 9.32114 8.72603 10.7878 8.86618 12.23C8.98297 13.4156 9.19319 14.6378 9.50853 15.97C9.59028 16.3489 9.88225 16.63 10.2443 16.7034C11.7392 16.9845 13.1524 16.96 14.367 16.7156C14.729 16.6422 15.021 16.3611 15.1028 15.9945C15.3831 14.7967 15.5933 13.5378 15.7451 12.23C15.8969 10.7511 15.9436 9.28447 15.8736 7.89114ZM10.6064 12.4256C10.4896 10.8734 10.6064 9.3578 10.6064 9.34558C10.618 9.21114 10.5246 9.08891 10.3961 9.07669C10.2677 9.06447 10.1509 9.16225 10.1392 9.29669C10.1392 9.3578 10.0224 10.8611 10.1392 12.45C10.256 14.0389 10.5947 15.5422 10.6064 15.6034C10.6297 15.7134 10.7231 15.7867 10.8283 15.7867C10.8516 15.7867 10.8633 15.7867 10.8866 15.7745C11.0151 15.7378 11.0852 15.6156 11.0618 15.4811C11.0618 15.4934 10.7231 13.9778 10.6064 12.4256ZM14.2035 9.08891C14.075 9.10114 13.9816 9.22336 13.9933 9.3578C13.9933 9.37002 14.11 10.8856 13.9933 12.4378C13.8765 13.99 13.5378 15.5056 13.5261 15.5178C13.4911 15.6522 13.5728 15.7867 13.7013 15.8111C13.7246 15.8111 13.7363 15.8234 13.7597 15.8234C13.8648 15.8234 13.9582 15.75 13.9816 15.64C13.9933 15.5789 14.3319 14.0756 14.4487 12.4867C14.5655 10.8978 14.4487 9.39447 14.4487 9.33336C14.4487 9.17447 14.3319 9.07669 14.2035 9.08891Z" fill="#F56C6C"/>
</svg>
